<mxfile host="app.diagrams.net" modified="2022-03-08T01:39:18.139Z" agent="5.0 (Macintosh; Intel Mac OS X 10_15_7) AppleWebKit/537.36 (KHTML, like Gecko) Chrome/98.0.4758.109 Safari/537.36" etag="KW1dX1H1g7Pk1XGfXFH8" version="16.6.1" type="github">
  <diagram id="hrjyBH-5ujo03640qZuh" name="第 1 页">
    <mxGraphModel dx="1263" dy="699" grid="1" gridSize="10" guides="1" tooltips="1" connect="1" arrows="1" fold="1" page="1" pageScale="1" pageWidth="827" pageHeight="1169" math="0" shadow="0">
      <root>
        <mxCell id="0" />
        <mxCell id="1" parent="0" />
        <mxCell id="ixG_kfn3xZWBvnZa2Kqw-6" value="" style="edgeStyle=orthogonalEdgeStyle;rounded=0;orthogonalLoop=1;jettySize=auto;html=1;" edge="1" parent="1" source="ixG_kfn3xZWBvnZa2Kqw-2">
          <mxGeometry relative="1" as="geometry">
            <mxPoint x="110" y="300" as="targetPoint" />
          </mxGeometry>
        </mxCell>
        <mxCell id="ixG_kfn3xZWBvnZa2Kqw-2" value="Request&amp;nbsp;" style="ellipse;whiteSpace=wrap;html=1;aspect=fixed;" vertex="1" parent="1">
          <mxGeometry x="70" y="130" width="80" height="80" as="geometry" />
        </mxCell>
        <mxCell id="ixG_kfn3xZWBvnZa2Kqw-7" value="Service B" style="rounded=1;whiteSpace=wrap;html=1;" vertex="1" parent="1">
          <mxGeometry x="320" y="300" width="120" height="60" as="geometry" />
        </mxCell>
        <mxCell id="ixG_kfn3xZWBvnZa2Kqw-8" value="Service A" style="rounded=1;whiteSpace=wrap;html=1;" vertex="1" parent="1">
          <mxGeometry x="50" y="300" width="120" height="60" as="geometry" />
        </mxCell>
        <mxCell id="ixG_kfn3xZWBvnZa2Kqw-9" value="实现的业务是： 在Service A上实现更新操作，同时在Service B上实现添加操作" style="text;html=1;align=center;verticalAlign=middle;resizable=0;points=[];autosize=1;strokeColor=none;fillColor=none;" vertex="1" parent="1">
          <mxGeometry x="85" y="60" width="430" height="20" as="geometry" />
        </mxCell>
      </root>
    </mxGraphModel>
  </diagram>
</mxfile>
